<svg width="77" height="51" viewBox="0 0 77 51" fill="none" xmlns="http://www.w3.org/2000/svg">
<path d="M76.0625 34.3225C76.0625 36.5725 75.5938 38.6819 74.6562 40.6506C73.8125 42.6194 72.6406 44.3538 71.1406 45.8538C69.7344 47.26 68.0469 48.385 66.0781 49.2288C64.1094 50.0725 62 50.4944 59.75 50.4944C57.5 50.4944 55.3906 50.0725 53.4219 49.2288C51.4531 48.385 49.7188 47.26 48.2188 45.8538C46.8125 44.3538 45.6875 42.6194 44.8438 40.6506C44 38.6819 43.5781 36.5725 43.5781 34.3225C43.5781 30.5725 44.1875 27.1038 45.4062 23.9163C46.625 20.635 48.2656 17.5881 50.3281 14.7756C52.4844 11.9631 54.9219 9.38501 57.6406 7.04126C60.4531 4.69751 63.3594 2.58813 66.3594 0.713135L71.5625 5.21313C69.7812 6.80688 68.1406 8.82251 66.6406 11.26C65.1406 13.6975 64.1562 16.135 63.6875 18.5725C67.25 19.4163 70.2031 21.3381 72.5469 24.3381C74.8906 27.2444 76.0625 30.5725 76.0625 34.3225ZM32.8906 34.3225C32.8906 36.5725 32.4219 38.6819 31.4844 40.6506C30.6406 42.6194 29.4688 44.3538 27.9688 45.8538C26.5625 47.26 24.8281 48.385 22.7656 49.2288C20.7969 50.0725 18.6875 50.4944 16.4375 50.4944C14.1875 50.4944 12.0781 50.0725 10.1094 49.2288C8.23438 48.385 6.54688 47.26 5.04688 45.8538C3.64062 44.3538 2.51562 42.6194 1.67188 40.6506C0.828125 38.6819 0.40625 36.5725 0.40625 34.3225C0.40625 30.5725 1.01562 27.1038 2.23438 23.9163C3.45312 20.635 5.09375 17.5881 7.15625 14.7756C9.3125 11.9631 11.75 9.38501 14.4688 7.04126C17.2812 4.69751 20.1875 2.58813 23.1875 0.713135L28.25 5.21313C26.5625 6.80688 24.9688 8.82251 23.4688 11.26C21.9688 13.6975 20.9844 16.135 20.5156 18.5725C24.0781 19.4163 27.0312 21.3381 29.375 24.3381C31.7188 27.2444 32.8906 30.5725 32.8906 34.3225Z" fill="#F8982C"/>
</svg>
