<svg width="43" height="43" viewBox="0 0 43 43" fill="none" xmlns="http://www.w3.org/2000/svg">
<rect width="43" height="43" rx="18" fill="url(#paint0_linear)"/>
<path fill-rule="evenodd" clip-rule="evenodd" d="M14.3959 36.8917C14.0973 36.6827 13.9995 36.2851 14.167 35.9615L19.8144 25.0518C19.999 24.695 20.4379 24.5556 20.7946 24.7402C21.1514 24.9249 21.2909 25.3637 21.1062 25.7205L17.9593 31.7998L28.0544 20.8217L20.333 19.4494C19.9375 19.3792 19.6739 19.0016 19.7442 18.6061C19.8145 18.2106 20.1921 17.947 20.5876 18.0173L29.6148 19.6216C29.8763 19.6681 30.0916 19.8534 30.1766 20.105C30.2616 20.3566 30.2026 20.6345 30.0229 20.83L15.3483 36.7881C15.1016 37.0564 14.6945 37.1006 14.3959 36.8917Z" fill="white"/>
<path fill-rule="evenodd" clip-rule="evenodd" d="M29.8189 5.13144C30.1175 5.34038 30.2154 5.73804 30.0478 6.06168L24.4005 16.9714C24.2158 17.3281 23.7769 17.4676 23.4202 17.2829C23.0635 17.0983 22.924 16.6594 23.1087 16.3027L26.2556 10.2233L16.1605 21.2014L23.8818 22.5737C24.2773 22.644 24.5409 23.0216 24.4706 23.417C24.4004 23.8125 24.0228 24.0762 23.6273 24.0059L14.6001 22.4015C14.3386 22.355 14.1232 22.1697 14.0382 21.9181C13.9533 21.6665 14.0122 21.3886 14.192 21.1931L28.8666 5.23502C29.1132 4.96677 29.5203 4.92249 29.8189 5.13144Z" fill="white"/>
<defs>
<linearGradient id="paint0_linear" x1="0" y1="0" x2="43" y2="43" gradientUnits="userSpaceOnUse">
<stop stop-color="#F7B733"/>
<stop offset="0.377834" stop-color="#F8982C"/>
<stop offset="1" stop-color="#FC4A1A"/>
</linearGradient>
</defs>
</svg>
