<svg width="193" height="223" viewBox="0 0 193 223" fill="none" xmlns="http://www.w3.org/2000/svg">
<g opacity="0.1">
<path fill-rule="evenodd" clip-rule="evenodd" d="M4.70358 222.085C1.1557 220.63 -0.00700302 217.86 1.98369 215.607L69.0892 139.635C71.2834 137.151 76.4984 136.179 80.7372 137.465C84.976 138.751 86.6334 141.807 84.4392 144.291L47.0454 186.626L167.002 110.178L75.2519 100.622C70.5525 100.132 67.42 97.503 68.2552 94.7489C69.0904 91.9949 73.5771 90.1591 78.2765 90.6486L185.544 101.821C188.651 102.145 191.21 103.435 192.219 105.187C193.229 106.939 192.529 108.875 190.393 110.236L16.0203 221.363C13.0891 223.231 8.25146 223.54 4.70358 222.085Z" fill="white"/>
<path fill-rule="evenodd" clip-rule="evenodd" d="M187.97 0.915294C191.518 2.37033 192.681 5.13953 190.69 7.39324L123.585 83.3652C121.39 85.8493 116.175 86.8206 111.937 85.5347C107.698 84.2488 106.04 81.1926 108.235 78.7085L145.628 36.3739L25.6721 112.822L117.422 122.378C122.121 122.868 125.254 125.497 124.419 128.251C123.583 131.005 119.097 132.841 114.397 132.351L7.13028 121.179C4.02326 120.855 1.46422 119.565 0.454509 117.813C-0.555205 116.061 0.144946 114.125 2.281 112.764L176.654 1.63663C179.585 -0.231384 184.422 -0.539742 187.97 0.915294Z" fill="white"/>
</g>
</svg>
